<?xml version="1.0" encoding="UTF-8"?>
<!DOCTYPE svg PUBLIC "-//W3C//DTD SVG 1.1//EN" "http://www.w3.org/Graphics/SVG/1.1/DTD/svg11.dtd">
<!-- Creator: CorelDRAW X6 -->
<svg xmlns="http://www.w3.org/2000/svg" xml:space="preserve" width="134.365mm" height="134.365mm" version="1.1" style="shape-rendering:geometricPrecision; text-rendering:geometricPrecision; image-rendering:optimizeQuality; fill-rule:evenodd; clip-rule:evenodd"
viewBox="0 0 1677346 1677346"
 xmlns:xlink="http://www.w3.org/1999/xlink">
 <defs>
  <style type="text/css">
   <![CDATA[
    .fil1 {fill:none}
    .fil2 {fill:#FEFEFE}
    .fil3 {fill:#201E1E}
    .fil4 {fill:#373435}
    .fil5 {fill:#5A3E92}
    .fil0 {fill:#E6E7E8}
    .fil6 {fill:#F9A431}
   ]]>
  </style>
 </defs>
 <rect class="fil0" x="-8303670" y="-10910617" width="3170800" height="3170800"/>
 <g id="Layer_x0020_1">
  <metadata id="CorelCorpID_0Corel-Layer"/>
  <rect class="fil1" width="1677346" height="1677346"/>
  <path class="fil2" d="M1246328 891730c4398,-13440 51538,-156168 61648,-208333 10110,-52163 126823,-219427 137909,-236055 11085,-16628 81186,-168243 81186,-195957 0,-20278 20424,-54887 21536,-75564 408,-7579 -1778,-13294 -8514,-15737 -25107,-9117 -179461,60939 -245496,93579 -66034,32641 -260004,238628 -265729,251692 -5724,13063 -32919,-52843 -50518,-88037 -17599,-35195 -91300,-150804 -107930,-150804 -10185,0 -13879,-18525 -25394,-15054 -7285,2195 -17710,13201 -34889,43269 -44343,77595 -6230,187177 -5259,212935 971,25758 21107,107933 -12145,74681 -33252,-33252 -80481,-94263 -114385,-108602 -33904,-14341 -115264,-32277 -163667,-14350 -48403,17928 -106940,67152 -118025,89323 -11087,22172 -1956,56248 9129,78420 11085,22171 69613,50363 108413,66991 38799,16629 135466,73058 168722,134029 33257,60970 92272,152258 147699,196600 55428,44343 132357,68987 148980,85612 16629,16624 89359,185985 100444,185985 11085,0 105313,44341 121941,16628 16628,-27715 38799,-138569 22171,-182911 -16628,-44343 -44343,-155198 -55428,-171826 -11085,-16628 22495,-21199 39123,-26742 16628,-5543 36095,-32498 38477,-39771z"/>
  <path class="fil3" d="M840126 589474c-36919,-28345 -39711,-40219 -90669,-65170 -3239,-80682 2808,-132949 12793,-169618 15036,-55292 41797,-121685 88754,-125894 46958,-4209 149142,212886 157450,231165 -5478,5661 -17761,19766 -28767,29934 -48979,-81636 -93074,-152492 -108651,-150276 -62643,8908 -35042,225023 -30910,249859z"/>
  <path class="fil4" d="M568299 530298c19488,14254 33134,30400 49833,48850l-22 146 -84647 7072c-21849,1940 -37288,-10324 -37380,-25716 -62,-8082 4122,-17045 13807,-25265 11299,-9607 21327,-15242 31946,-15347 8160,-77 16680,3117 26464,10260z"/>
  <path class="fil5" d="M703136 919445c-66504,-116395 -49894,-138574 -155197,-210626 -37900,-25927 -97212,-29771 -166617,-39775 -73071,-3445 -234232,36041 -315928,75103l-6993 -10670c83806,-51312 163453,-82901 248210,-131758 14291,-31061 103520,-104648 151437,-135940 39176,-25590 88821,-35930 123896,-35695 79364,528 133195,30335 194162,80206 27953,22872 66300,57312 102962,51543 61525,-81101 136081,-162124 218518,-224672 80950,-61422 149659,-104013 243882,-148351 76122,-35820 186161,-90352 237297,-89434 11285,200 19710,3108 24255,9511 3103,4373 4678,16829 5400,30628 949,18171 434,38688 9,46235 -9356,164195 -127537,329643 -255876,479737 -61276,71658 -51122,260458 -119967,331547 44843,89087 62882,122787 87975,225470 5529,22624 16100,108807 15848,189874 -253,81961 -11587,158705 -50368,159290 -46897,709 -158368,-106434 -221826,-108359 -61596,-1871 -220518,89434 -248179,50620 -27661,-38816 69205,-156448 100431,-257432 23852,-77134 20042,-131879 27080,-160218 -55247,-26047 -68718,-27682 -101841,-42501 -85452,-38228 -99402,-65792 -138569,-134335zm-260519 -294255c25908,34600 54997,46860 120584,68007 61994,19990 178889,36068 151020,104307 -22428,54926 72083,188475 127484,232795 47375,37895 64527,34197 119932,56333 9928,3964 26467,4882 32410,12096 17630,21413 46591,143132 112199,154226 61334,10373 79586,-90289 68025,-189398 -3693,-31678 -8966,-59871 -39193,-114403 -34871,-62908 -27040,-59157 -22669,-64566 12696,-15707 79923,46377 107118,-14016 32587,-72363 22662,-191882 76308,-244530 83834,-82264 229094,-316358 150316,-349548 -52062,-21937 -256475,91823 -304222,139570 -47748,47748 -91957,105965 -130748,178017 -41092,76318 -33265,105317 -72056,121941 -27430,11751 -75656,-31315 -105313,-60970 -38799,-38800 -73430,-82884 -90963,-100417 -44341,-44343 -97583,-76411 -150085,-82685 -37881,-4527 -70751,2297 -116131,28238 -22956,13125 -67409,59697 -64562,64540 5737,9742 31172,21098 30547,60465z"/>
  <path class="fil6" d="M972883 1119085c34201,10918 119684,16536 116961,1868 -2723,-14668 -74349,-35363 -113729,-54053 -66251,-31438 -116322,-69736 -145495,-101800 -44178,-48554 -65081,-93079 -60519,-116376 6731,-34361 55051,-27834 53136,-52098 -1925,-24353 -43326,-65634 -190916,-104736 -104332,-27638 -149043,-60291 -189531,-67285 -11178,31244 -46777,40911 -98009,45420 27962,13608 48860,24446 104262,52133 58783,29376 142463,49211 164668,75595 32343,38430 50808,116664 92685,159516 103103,105508 154474,126064 266487,161817z"/>
 </g>
</svg>
